<?xml version="1.0" encoding="utf-8"?><!DOCTYPE svg PUBLIC "-//W3C//DTD SVG 1.1//EN" "http://www.w3.org/Graphics/SVG/1.1/DTD/svg11.dtd"><svg viewBox="0 0 744 478.667" xmlns="http://www.w3.org/2000/svg" xmlns:xlink="http://www.w3.org/1999/xlink"><style>:root>svg{display:none}:root>svg:target{display:block}</style><svg fill="none" viewBox="0 0 42 42" id="arrow_n" xmlns="http://www.w3.org/2000/svg"><path d="M29.75 21H5.25" stroke="#1E293C" stroke-linecap="round" stroke-linejoin="round"/><path d="m38.143 20.786-7.181-4.309a.8.8 0 0 0-1.212.686v7.674a.8.8 0 0 0 1.212.686l7.18-4.309a.25.25 0 0 0 0-.428Z" fill="#1E293C"/></svg><svg fill="none" viewBox="0 0 42 42" id="arrow_p" xmlns="http://www.w3.org/2000/svg"><path d="M12.25 21h24.5" stroke="#1E293C" stroke-linecap="round" stroke-linejoin="round"/><path d="m3.857 21.214 7.181 4.309a.8.8 0 0 0 1.212-.686v-7.674a.8.8 0 0 0-1.212-.686l-7.18 4.309a.25.25 0 0 0 0 .428Z" fill="#1E293C"/></svg><svg version="1.0" viewBox="0 0 558 359" id="logo" xmlns="http://www.w3.org/2000/svg"><g fill="#063c5e"><path d="m205 25.9-47.5 23.8-.3 32.7c-.1 17.9 0 32.6.3 32.6s4.1-1.4 8.4-3l7.8-3 15.9 8.8c8.7 4.8 21.6 11.9 28.6 15.7l12.8 7V292h4.8c2.6 0 7.7-.3 11.5-.7l6.7-.6V146.4c0-79.4-.4-144.4-.8-144.3-.4 0-22.1 10.7-48.2 23.8zM239 47v14l-5.1 2.5c-2.7 1.4-6.1 3-7.5 3.5l-2.4 1V39l6.3-2.9c3.4-1.6 6.8-3 7.5-3 .9-.1 1.2 3.3 1.2 13.9zm-63 44.2c-1.7 1.6-3.4 2.8-3.8 2.8-.4 0-.5-6.4-.2-14.3.5-14.3.5-14.4 3.5-17.5l3-3.2.3 14.7.3 14.8-3.1 2.7zm63 3.2v14.3l-6.2 2.8c-3.5 1.5-6.9 2.9-7.5 3.2-1 .4-1.3-2.8-1.3-13.9V86.3l6.8-3.1c3.7-1.8 7-3.2 7.5-3.2.4 0 .7 6.5.7 14.4zM271 147c0 143.3 0 144 2 144 1.9 0 2-.7 2-10.5 0-6.1.4-10.5 1-10.5.5 0 2.5.8 4.5 1.7l3.5 1.7V290.7l22.3.6c12.2.4 25.5 1 29.5 1.3l7.2.7-.2-121.9-.3-121.9-17.4-10.1c-9.5-5.6-19-11.8-21-13.7-2-1.9-6.3-5.2-9.6-7.3-3.3-2-9.9-6.4-14.7-9.5L271 3.1V147zm13-96c0 15.4-.1 15.6-6 12.5l-3-1.6V48.1c0-7.6.3-14 .6-14.4.4-.3 2.4.3 4.5 1.4L284 37v14zm45 9.5 7 3.5v14c0 7.7-.4 14-.9 14s-3.9-1.3-7.5-3l-6.6-2.9V71.5c0-8 .2-14.5.5-14.5s3.7 1.6 7.5 3.5zm-49.3 21.7c1.5.7 3.1 1.7 3.6 2.3.8 1 .8 26.5 0 27.7-.2.5-2.2-.1-4.4-1.2l-3.9-2V95c0-8.2.4-14 1-14 .5 0 2.2.6 3.7 1.2zm48.7 25.4 7.6 3.6v13.9c0 9-.4 13.9-1 13.9s-4-1.2-7.5-2.8l-6.4-2.7-.3-14.8c-.2-8.1-.2-14.7-.2-14.7.1 0 3.6 1.6 7.8 3.6zm-46.6 23.1c2.2 1.3 2.3 1.8 2.1 14.8 0 7.4-.4 13.7-.7 13.9-.4.2-2.3-.3-4.2-1.3l-3.5-1.6-.3-14.3-.3-14.4 2.3.7c1.3.4 3.3 1.4 4.6 2.2zm54.2 42c0 7.9-.2 14.3-.4 14.3s-3.7-1.5-7.7-3.4l-7.4-3.3.3-14.5.3-14.6 7.5 3.6 7.4 3.6v14.3zm-52.8 6.7c1.1 1.6.8 27.6-.3 27.6-.4 0-2.4-.8-4.4-1.7l-3.5-1.7V190c0-7.5.3-13.9.6-14.3.8-.7 6.6 2.1 7.6 3.7zm45.8 23.1 7 3.5v14c0 10.6-.3 14-1.2 13.9-2 0-14.1-6.3-13.9-7.2 0-.4.1-6.8.1-14.2 0-7.4.2-13.5.5-13.5s3.7 1.6 7.5 3.5zm-48.5 22.2 3.6 1.7-.2 13.8c-.1 15.1-.2 15.3-5.9 12.3l-3-1.6V237c0-8.3.4-14 1-14 .5 0 2.5.8 4.5 1.7zm55.3 42.1c.2 9.2-.1 14.2-.8 14.2-.5 0-4-1.4-7.7-3l-6.8-3 .3-14.5.3-14.4 7.2 3.3 7.2 3.2.3 14.2zM374.5 95.8c-22.1 13.3-23 13.9-23.3 17.1l-.3 3.4 3.3-2c1.8-1.1 11.6-7 21.7-13.1C386 95 394.4 90 394.6 90c.2 0 .4 47 .4 104.4v104.4l6.3 1.1c3.5.6 6.9 1.1 7.5 1.1.9 0 1.2-24.4 1.2-100 0-55 .2-100 .4-100s2 .7 4 1.5l3.6 1.5v198.7l8.8 1.7c4.8 1 9.7 2 11 2.3l2.2.5V104.5l-4.8-2.5c-2.6-1.4-11.8-6.5-20.5-11.3-8.7-4.8-16.1-8.7-16.5-8.7-.4 0-11 6.2-23.7 13.8z"/><path d="m154.8 127.2-19.8 11v166l2.3-.5c1.2-.3 4.3-.9 7-1.2l4.7-.7V140.9l3.5-1.5c1.9-.7 3.7-1.4 4-1.4.3 0 .5 36.5.5 81.1v81.1l3.3-.5c1.7-.3 5.1-.9 7.5-1.2l4.2-.7-.2-86.9c-.2-57.4 0-86.9.7-86.9.6 0 2.4.8 4 1.8 4.2 2.6 46.1 24.2 46.9 24.2.3 0 .6-1.3.6-2.9 0-2.7-1.5-3.7-24-17-13.3-7.7-24.4-14.1-24.8-14-.4 0-9.6 5-20.4 11.1zM351 208.9v84.7l17.8 2.1c9.7 1.1 18 1.9 18.5 1.6.9-.6.9-151.3-.1-151.3-.4 0-8.7-4.9-18.5-10.9L351 124.2v84.7z"/><path d="m201.5 169.4-22 11.3-.3 58.2-.2 58.3 4.2-.6c8.1-1.2 33-3.6 36.9-3.6h3.9v-67.5c0-37.1-.1-67.5-.2-67.5-.2 0-10.2 5.1-22.3 11.4zM251.5 300.6c-53.5 2.6-89.4 7.2-134.3 16.9-10.9 2.3-36.9 10-51.1 15.1-12.8 4.6-43.8 19-42.9 19.9.3.3 4.1-.6 8.4-1.9C78.3 336 149 325 221 321c23.9-1.3 94.1-1.3 118 0 72.8 4 147 15.7 190.8 30.1 3.5 1.2 6.6 1.8 6.9 1.5 1-1-29.5-15.2-42.9-20C450 316.9 400 307.1 340 302.5c-17.9-1.4-74.3-2.6-88.5-1.9z"/></g></svg><svg xml:space="preserve" style="shape-rendering:geometricPrecision;text-rendering:geometricPrecision;image-rendering:optimizeQuality;fill-rule:evenodd;clip-rule:evenodd" viewBox="0 0 15785.75 15785.75" id="noimage" xmlns="http://www.w3.org/2000/svg"><path style="fill:#ebecec" d="M0 0h15785.75v15785.75H0z"/><path d="M1231.39 14554.41c-49.97-55.33-48.6-56.84 860.07-965.94l910.23-910.34 105.73 105.73-912.99 912.95-912.79 912.98-50.26-55.38zm12363.08-854.28-906.2-906.5 55.33-50.11c55.34-50.11 56.86-48.71 959.22 853.63l903.6 903.6-52.87 53-52.87 52.87-906.21-906.49zM5989.59 8132.22c-29.04-12.09-82.62-54.1-118.95-93.19l-66.09-71.06-7.43-1140.38c-7.96-1225.22-6.06-1246.02 127.35-1341.01 64.42-45.85 117.71-52.19 439.33-52.58 201.3-.14 382.88-11.18 403.68-24.25 20.65-13.08 104.79-134.79 186.84-270.56 223.04-368.95 211.62-364.69 965.95-365.25 772.8-.56 772.66-.56 996.26 367.76 83.14 136.97 166.33 258.67 185.04 270.52 18.57 11.7 191.92 21.64 385.38 21.78 392.64.53 478.01 25.45 547.55 159.7 35.39 68.56 39.93 232.94 33.45 1228.36l-7.44 1149.08-172.77 172.77-1922.7 5.26c-1057.38 2.89-1946.38-4.83-1975.43-16.95zm3887.1-172.1 64.85-64.81V6800.6c0-1359.15 48.33-1234.03-476.52-1234.03-203.91 0-394.44-12.52-428.84-28.2-34.86-15.86-125.87-134.53-207.63-270.83-221.13-368.71-204.19-361.83-896.02-361.83-691.85 0-674.89-6.87-896.02 361.83-81.78 136.3-172.78 254.97-207.6 270.83-34.44 15.69-224.98 28.2-428.87 28.2-524.85 0-476.53-125.13-476.53 1234.03v1094.71l64.86 64.81 64.99 64.85h3758.35l64.99-64.85zm-2290.7-260.19c-269.57-113.6-431.48-266.99-548.92-519.63-57.14-122.8-68.31-185.14-68.84-384.53-.42-212.01 8.39-256.63 81.21-409.73 362.93-762.34 1403.25-762.34 1766.18 0 72.01 151.44 81.64 198.54 80.54 396.51-2.22 396.66-176.79 690.05-519.21 873.18-147.71 79.17-194.09 90.3-404.76 98.02-203.09 7.43-259.66-.42-386.18-53.82zm696.38-149.55c358.92-170.56 554.85-576.45 459.02-950.94-101.34-395.14-406.84-635.13-808.86-635.13-402.02 0-707.53 239.98-808.86 635.13-106.16 414.29 141.26 857.89 553.89 992.81 158.04 51.77 450.33 31.54 604.81-41.87zm250.28-705.17c-10.18-10.18-18.57-42.01-18.57-70.49 0-127.52-70.92-275.91-187.65-393.25-104.93-105.31-147.19-128.43-285.56-155.57-179.79-35.39-213.94-62.77-153.49-123.22 100.34-100.35 483.64 62.24 622.3 263.81 92.24 134.08 144.69 293.91 132.31 403.11-8.52 74.9-68.55 116.35-109.33 75.6zm430.81-697.09c-78.74-78.6-70.49-220.14 16.81-288.84 79.41-62.49 113.18-66.65 203.76-25.49 185.32 84.55 124.32 367.2-79.3 367.2-53.15 0-109.48-21.04-141.27-52.87zm185.04-132.17c0-35.25-17.62-52.87-52.87-52.87-50.92 0-71.59 51.78-35.24 88.12 36.34 36.48 88.11 15.72 88.11-35.25zm-7058-3819.78-911.19-911.29 105.74-105.73 911.18 911.29 911.18 911.46-105.73 105.73-911.18-911.46zm10644.84 838.32c-40.21-44.58 10.33-100.49 863.1-952.87l905.78-905.65 50.12 55.34c49.97 55.37 48.47 57.14-847.14 952.88-493.44 493.72-904.41 897.53-913.09 897.53-8.81 0-35.1-21.18-58.79-47.23zM4248.43 9283.91v-103.8h101.51v103.8c103.99 5.52 186.11 36.88 246.18 94.11 60.27 57.22 90.3 128.12 90.3 212.91 0 83.08-29.08 153.6-87.44 211.77-58.36 57.99-141.24 90.11-249.04 96v104.94h-101.51V9898.7c-96.57-3.81-176.99-33.27-241.24-88.59-64.25-55.13-96.37-128.31-96.37-219.18 0-91.06 32.12-164.05 96.18-218.8s144.48-84.02 241.43-88.21zm101.51 92.39v430.01c69.77-3.43 124.52-23.77 164.63-61.02 40.11-37.26 60.07-88.59 60.07-153.98 0-64.25-19.57-115.01-58.93-152.65-39.35-37.45-94.48-58.17-165.77-62.35zm-101.51 1.15c-67.3 3.04-121.67 22.81-163.3 59.69-41.63 36.88-62.54 88.21-62.54 154.17 0 65.2 20.53 116.34 61.59 153.6 41.06 37.26 95.81 57.22 164.25 60.27v-427.72zm521.63 330.2c0-109.31 30.42-190.29 91.44-242.95 50.76-43.72 112.93-65.58 186.11-65.58 81.18 0 147.71 26.61 199.42 79.84 51.51 53.04 77.37 126.61 77.37 220.33 0 76.03-11.41 135.73-34.22 179.26-22.82 43.53-56.08 77.37-99.81 101.52-43.53 24.14-91.25 36.12-142.76 36.12-82.89 0-149.79-26.43-200.94-79.47-51.13-53.03-76.61-129.45-76.61-229.06zm102.66.19c0 75.66 16.54 132.31 49.62 169.76 33.27 37.64 74.9 56.46 125.28 56.46 49.81 0 91.25-18.82 124.52-56.65 33.08-37.83 49.62-95.43 49.62-172.8 0-72.99-16.72-128.31-49.99-165.76-33.27-37.65-74.71-56.46-124.14-56.46-50.37 0-92.01 18.62-125.28 56.08-33.08 37.45-49.62 93.91-49.62 169.38zm491.79-296.18h479.06v83.26h-189.34v508.71h-100.38v-508.71h-189.34v-83.26zM5889 9707.65c0-109.31 30.42-190.29 91.44-242.95 50.76-43.72 112.93-65.58 186.11-65.58 81.18 0 147.71 26.61 199.42 79.84 51.51 53.04 77.37 126.61 77.37 220.33 0 76.03-11.41 135.73-34.22 179.26-22.82 43.53-56.08 77.37-99.81 101.52-43.53 24.14-91.25 36.12-142.76 36.12-82.89 0-149.79-26.43-200.94-79.47-51.13-53.03-76.61-129.45-76.61-229.06zm102.66.19c0 75.66 16.54 132.31 49.62 169.76 33.27 37.64 74.9 56.46 125.28 56.46 49.81 0 91.25-18.82 124.52-56.65 33.08-37.83 49.62-95.43 49.62-172.8 0-72.99-16.72-128.31-49.99-165.76-33.27-37.65-74.71-56.46-124.14-56.46-50.37 0-92.01 18.62-125.28 56.08-33.08 37.45-49.62 93.91-49.62 169.38zm886.25-296.18h230.97c56.65 0 98.85 4.76 126.61 14.26 27.57 9.51 51.32 26.81 71.1 52.09 19.96 25.48 29.84 55.7 29.84 91.06 0 28.32-5.89 53.03-17.48 73.94-11.79 21.1-29.27 38.78-52.85 52.85 27.75 9.31 50.75 26.62 69.2 52.08 18.25 25.29 27.38 55.51 27.38 90.3-3.61 56.08-23.76 97.71-60.08 124.71-36.31 27.19-89.15 40.68-158.35 40.68h-266.33v-591.98zm100.37 249.79h106.45c42.39 0 71.68-2.28 87.45-6.65 15.97-4.57 30.22-13.5 42.77-27.19 12.55-13.5 18.82-29.84 18.82-48.86 0-31.36-11.03-53.03-32.89-65.39-22.05-12.36-59.7-18.44-112.92-18.44h-109.69v166.53zm0 260.06h131.74c56.65 0 95.62-6.65 116.72-19.77 21.1-13.3 32.12-35.93 33.26-68.43 0-18.82-6.08-36.51-18.24-52.66-12.36-16.16-28.32-26.43-47.91-30.6-19.58-4.38-51.13-6.46-94.48-6.46h-121.09v177.93zm505.67 309.1v-818.95h91.25v77.76c21.48-30.04 45.81-52.66 72.99-67.68 27-15.02 59.89-22.62 98.47-22.62 50.57 0 95.05 12.92 133.64 38.96 38.6 25.86 67.68 62.54 87.45 109.69 19.58 47.34 29.46 99.04 29.46 155.5 0 60.27-10.83 114.63-32.51 163.1-21.67 48.29-53.22 85.36-94.66 111.21-41.25 25.67-84.78 38.6-130.41 38.6-33.45 0-63.49-7.03-89.92-21.1-26.61-14.07-48.28-31.75-65.39-53.23v288.76h-100.37zm91.25-519.35c0 75.85 15.4 131.93 46 168.24 30.8 36.31 68.06 54.56 111.78 54.56 44.49 0 82.51-18.82 114.07-56.46 31.74-37.64 47.52-95.81 47.52-174.7 0-75.28-15.4-131.55-46.38-169-30.99-37.45-67.87-56.08-110.83-56.08-42.58 0-80.22 19.96-112.92 59.69-32.89 39.92-49.24 97.71-49.24 173.75zm946.89 100.76 103.8 13.69c-16.16 60.26-46.38 107.21-90.49 140.48-44.1 33.26-100.37 49.99-169 49.99-86.3 0-154.74-26.62-205.3-79.85-50.56-53.03-75.85-127.74-75.85-223.75 0-99.23 25.48-176.41 76.61-231.16 51.13-54.93 117.48-82.31 199.03-82.31 78.9 0 143.34 26.8 193.34 80.6 49.99 53.8 75.09 129.46 75.09 226.99 0 5.88-.19 14.83-.57 26.61h-440.84c3.8 64.83 22.05 114.64 55.13 149.05 32.88 34.41 74.13 51.7 123.37 51.7 36.69 0 68.06-9.69 93.92-29.08 26.04-19.39 46.57-50.37 61.77-92.96zm-328.48-160.82h329.63c-4.38-49.81-17.11-87.07-37.84-111.97-31.74-38.6-73.18-57.99-123.94-57.99-46.01 0-84.6 15.41-115.97 46.2-31.18 30.79-48.48 72.04-51.89 123.76zm562.5-239.53h154.36l156.46 473.73 173.17-473.73h143.34v591.98h-100.37v-476.58l-174.32 476.58h-89.73l-164.82-499.39v499.39h-98.09v-591.98zm1184.51 400.36 103.8 13.69c-16.16 60.26-46.38 107.21-90.49 140.48-44.1 33.26-100.37 49.99-169 49.99-86.3 0-154.74-26.62-205.3-79.85-50.56-53.03-75.85-127.74-75.85-223.75 0-99.23 25.48-176.41 76.61-231.16 51.13-54.93 117.48-82.31 199.03-82.31 78.9 0 143.34 26.8 193.34 80.6 49.99 53.8 75.09 129.46 75.09 226.99 0 5.88-.19 14.83-.57 26.61h-440.84c3.8 64.83 22.05 114.64 55.13 149.05 32.88 34.41 74.13 51.7 123.37 51.7 36.69 0 68.06-9.69 93.92-29.08 26.04-19.39 46.57-50.37 61.77-92.96zm-328.48-160.82h329.63c-4.38-49.81-17.11-87.07-37.84-111.97-31.74-38.6-73.18-57.99-123.94-57.99-46.01 0-84.6 15.41-115.97 46.2-31.18 30.79-48.48 72.04-51.89 123.76zm559.09-239.53h100.37v246.38h278.31v-246.38h100.37v591.98h-100.37v-262.33h-278.31v262.33h-100.37v-591.98zm629.8 0h100.37v246.38h278.31v-246.38h100.37v591.98h-100.37v-262.33h-278.31v262.33h-100.37v-591.98zm592.16 295.99c0-109.31 30.42-190.29 91.44-242.95 50.76-43.72 112.93-65.58 186.11-65.58 81.18 0 147.71 26.61 199.42 79.84 51.51 53.04 77.37 126.61 77.37 220.33 0 76.03-11.41 135.73-34.22 179.26-22.82 43.53-56.08 77.37-99.81 101.52-43.53 24.14-91.25 36.12-142.76 36.12-82.89 0-149.79-26.43-200.94-79.47-51.13-53.03-76.61-129.45-76.61-229.06zm102.66.19c0 75.66 16.54 132.31 49.62 169.76 33.27 37.64 74.9 56.46 125.28 56.46 49.81 0 91.25-18.82 124.52-56.65 33.08-37.83 49.62-95.43 49.62-172.8 0-72.99-16.72-128.31-49.99-165.76-33.27-37.65-74.71-56.46-124.14-56.46-50.37 0-92.01 18.62-125.28 56.08-33.08 37.45-49.62 93.91-49.62 169.38zm-6590.3 1274.06c0-109.31 30.42-190.29 91.44-242.95 50.76-43.72 112.93-65.58 186.11-65.58 81.18 0 147.71 26.61 199.42 79.84 51.51 53.04 77.37 126.61 77.37 220.33 0 76.03-11.41 135.73-34.22 179.26-22.82 43.53-56.08 77.37-99.81 101.52-43.53 24.14-91.25 36.12-142.76 36.12-82.89 0-149.79-26.43-200.94-79.47-51.13-53.03-76.61-129.45-76.61-229.06zm102.66.19c0 75.66 16.54 132.31 49.62 169.76 33.27 37.64 74.9 56.46 125.28 56.46 49.81 0 91.25-18.82 124.52-56.65 33.08-37.83 49.62-95.43 49.62-172.8 0-72.99-16.72-128.31-49.99-165.76-33.27-37.65-74.71-56.46-124.14-56.46-50.37 0-92.01 18.62-125.28 56.08-33.08 37.45-49.62 93.91-49.62 169.38zm491.79-296.18h479.06v83.26h-189.34v508.71h-100.38v-508.71H5500v-83.26zm948.79 375.26 98.09 13.69c-10.84 67.49-38.21 120.14-82.51 158.36-44.29 38.21-98.85 57.22-163.29 57.22-80.8 0-145.81-26.43-194.85-79.28-49.24-52.84-73.75-128.5-73.75-226.98 0-63.87 10.64-119.57 31.74-167.48 21.1-47.72 53.23-83.64 96.57-107.4 43.15-23.96 90.11-35.93 141.05-35.93 64.06 0 116.72 16.16 157.41 48.67 40.86 32.5 67.1 78.7 78.51 138.39l-96.95 14.83c-9.31-39.72-25.67-69.57-49.43-89.72-23.58-19.96-52.09-30.04-85.54-30.04-50.57 0-91.64 18.06-123.38 54.18-31.56 36.31-47.34 93.34-47.34 171.67 0 79.46 15.21 137.06 45.63 172.98 30.6 35.93 70.34 53.99 119.19 53.99 39.53 0 72.42-11.98 98.66-36.12 26.43-23.96 43.15-61.02 50.18-111.02zm179.07 444.27-11.41-92.78c22.06 5.89 41.06 8.94 57.42 8.94 22.43 0 40.29-3.81 53.6-11.22 13.5-7.41 24.53-17.87 33.08-31.18 6.27-10.07 16.54-34.98 30.6-74.89 1.91-5.52 4.76-13.69 8.94-24.53l-224.7-593.87h107.21l123.57 341.8c16.16 43.15 30.41 88.78 43.15 136.69 11.59-45.06 25.28-89.54 41.25-133.26l126.23-345.23h100.18l-223.75 602.24c-24.14 64.83-42.96 109.31-56.46 133.84-17.87 32.88-38.41 57.03-61.4 72.42-23.19 15.4-50.75 23-82.7 23-19.38 0-41.05-3.99-64.82-11.97zm522.39-819.53h479.06v83.26h-189.34v508.71h-100.38v-508.71h-189.34v-83.26zm948.79 375.26 98.09 13.69c-10.84 67.49-38.21 120.14-82.51 158.36-44.29 38.21-98.85 57.22-163.29 57.22-80.8 0-145.81-26.43-194.85-79.28-49.24-52.84-73.75-128.5-73.75-226.98 0-63.87 10.64-119.57 31.74-167.48 21.1-47.72 53.23-83.64 96.57-107.4 43.15-23.96 90.11-35.93 141.05-35.93 64.06 0 116.72 16.16 157.41 48.67 40.86 32.5 67.1 78.7 78.51 138.39l-96.95 14.83c-9.31-39.72-25.67-69.57-49.43-89.72-23.58-19.96-52.09-30.04-85.54-30.04-50.57 0-91.64 18.06-123.38 54.18-31.56 36.31-47.34 93.34-47.34 171.67 0 79.46 15.21 137.06 45.63 172.98 30.6 35.93 70.34 53.99 119.19 53.99 39.53 0 72.42-11.98 98.66-36.12 26.43-23.96 43.15-61.02 50.18-111.02zm131.16-375.26h479.06v83.26h-189.34v508.71h-100.38v-508.71H8230.2v-83.26zm574.87 0h230.97c56.65 0 98.85 4.76 126.61 14.26 27.57 9.51 51.32 26.81 71.1 52.09 19.96 25.48 29.84 55.7 29.84 91.06 0 28.32-5.89 53.03-17.48 73.94-11.79 21.1-29.27 38.78-52.85 52.85 27.75 9.31 50.75 26.62 69.2 52.08 18.25 25.29 27.38 55.51 27.38 90.3-3.61 56.08-23.76 97.71-60.08 124.71-36.31 27.19-89.15 40.68-158.35 40.68h-266.33v-591.98zm100.37 249.79h106.45c42.39 0 71.68-2.28 87.45-6.65 15.97-4.57 30.22-13.5 42.77-27.19 12.55-13.5 18.82-29.84 18.82-48.86 0-31.36-11.03-53.03-32.89-65.39-22.05-12.36-59.7-18.44-112.92-18.44h-109.69v166.53zm0 260.06h131.74c56.65 0 95.62-6.65 116.72-19.77 21.1-13.3 32.12-35.93 33.26-68.43 0-18.82-6.08-36.51-18.24-52.66-12.36-16.16-28.32-26.43-47.91-30.6-19.58-4.38-51.13-6.46-94.48-6.46h-121.09v177.93zm476.01 309.68-11.41-92.78c22.06 5.89 41.06 8.94 57.42 8.94 22.43 0 40.29-3.81 53.6-11.22 13.5-7.41 24.53-17.87 33.08-31.18 6.27-10.07 16.54-34.98 30.6-74.89 1.91-5.52 4.76-13.69 8.94-24.53l-224.7-593.87h107.21l123.57 341.8c16.16 43.15 30.41 88.78 43.15 136.69 11.59-45.06 25.28-89.54 41.25-133.26l126.23-345.23h100.18l-223.75 602.24c-24.14 64.83-42.96 109.31-56.46 133.84-17.87 32.88-38.41 57.03-61.4 72.42-23.19 15.4-50.75 23-82.7 23-19.38 0-41.05-3.99-64.82-11.97zm965.89-419.17 103.8 13.69c-16.16 60.26-46.38 107.21-90.49 140.48-44.1 33.26-100.37 49.99-169 49.99-86.3 0-154.74-26.62-205.3-79.85-50.56-53.03-75.85-127.74-75.85-223.75 0-99.23 25.48-176.41 76.61-231.16 51.13-54.93 117.48-82.31 199.03-82.31 78.9 0 143.34 26.8 193.34 80.6 49.99 53.8 75.09 129.46 75.09 226.99 0 5.88-.19 14.83-.57 26.61h-440.84c3.8 64.83 22.05 114.64 55.13 149.05 32.88 34.41 74.13 51.7 123.37 51.7 36.69 0 68.06-9.69 93.92-29.08 26.04-19.39 46.57-50.37 61.77-92.96zm-328.48-160.82h329.63c-4.38-49.81-17.11-87.07-37.84-111.97-31.74-38.6-73.18-57.99-123.94-57.99-46.01 0-84.6 15.41-115.97 46.2-31.18 30.79-48.48 72.04-51.89 123.76zm468.79-239.53h479.06v83.26h-189.34v508.71h-100.38v-508.71h-189.34v-83.26z" style="fill:#898989;fill-rule:nonzero"/></svg><svg fill="none" viewBox="0 0 10 10" id="select-arrow" xmlns="http://www.w3.org/2000/svg"><path d="M4.964 9.351 9.273 2.17A.8.8 0 0 0 8.587.958H.913A.8.8 0 0 0 .227 2.17l4.309 7.181a.25.25 0 0 0 .428 0Z" fill="#1E293C"/></svg><svg fill="none" viewBox="0 0 21 21" id="zoom-icon" xmlns="http://www.w3.org/2000/svg"><path d="M14 9h-3V6a1 1 0 0 0-2 0v3H6a1 1 0 1 0 0 2h3v3a1 1 0 1 0 2 0v-3h3a1 1 0 1 0 0-2Zm6.71 10.29L17 15.61A9 9 0 1 0 15.61 17l3.68 3.68a.999.999 0 0 0 1.42 0 1 1 0 0 0 0-1.39ZM10 17a7 7 0 1 1 0-14 7 7 0 0 1 0 14Z" fill="#000"/></svg></svg>